<svg width="64" height="64" viewBox="0 0 64 64" fill="none" xmlns="http://www.w3.org/2000/svg">
<g clip-path="url(#clip0_17_2884)">
<path d="M49.6214 47.3333L39.2214 48.048H39.1494C35.7549 48.3222 32.4147 49.0653 29.2241 50.256L22.5281 52.6773C21.1063 53.1908 19.5936 53.4048 18.0852 53.3056C16.5768 53.2065 15.1051 52.7965 13.7627 52.1013C12.4464 51.4285 11.2923 50.4772 10.3805 49.3136C9.46872 48.1499 8.82114 46.8017 8.48274 45.3627L4.81341 29.2293C4.51897 27.9278 4.49389 26.5798 4.73969 25.2682C4.9855 23.9567 5.497 22.7092 6.24274 21.6027C7.79155 19.3158 10.1739 17.7259 12.8801 17.1733L42.8801 10.896C48.5787 9.70132 54.2054 13.1627 55.4481 18.6293L59.1894 35.0613C59.5116 36.4849 59.5119 37.9624 59.1904 39.3861C58.8688 40.8098 58.2335 42.1438 57.3307 43.2907C56.4007 44.4655 55.2339 45.4316 53.9062 46.1263C52.5785 46.8209 51.1195 47.2285 49.6241 47.3227V47.328L49.6214 47.3333Z" stroke="#4770FF" stroke-width="2" stroke-linecap="round" stroke-linejoin="round"/>
<path d="M24 26.6665L27.2213 39.9998L38.6667 29.3332L24 26.6665Z" stroke="#4770FF" stroke-width="2" stroke-linecap="round" stroke-linejoin="round"/>
</g>
<defs>
<clipPath id="clip0_17_2884">
<rect width="64" height="64" fill="white"/>
</clipPath>
</defs>
</svg>
